<svg class="ldi-jc7x3t" width="200px"  height="200px"  xmlns="http://www.w3.org/2000/svg" xmlns:xlink="http://www.w3.org/1999/xlink" viewBox="0 0 100 100" preserveAspectRatio="xMidYMid" style="background: none;"><!--?xml version="1.0" encoding="utf-8"?--><!--Generator: Adobe Illustrator 21.0.0, SVG Export Plug-In . SVG Version: 6.00 Build 0)--><svg version="1.1" id="Layer_1" xmlns="http://www.w3.org/2000/svg" xmlns:xlink="http://www.w3.org/1999/xlink" x="0px" y="0px" viewBox="0 0 100 100" style="transform-origin: 50px 50px 0px;" xml:space="preserve"><g style="transform-origin: 50px 50px 0px;"><g style="transform-origin: 50px 50px 0px; transform: scale(0.98);"><g class="ld ld-cycle" style="transform-origin: 50px 50px 0px; animation-duration: 1s; animation-delay: -1s; animation-direction: normal;"><g><style type="text/css" style="transform-origin: 50px 50px 0px;">.st0{fill:#F4E6C8;} .st1{opacity:0.8;fill:#849B87;} .st2{fill:#D65A62;} .st3{fill:#E15C64;} .st4{fill:#F47E5F;} .st5{fill:#F7B26A;} .st6{fill:#FEE8A2;} .st7{fill:#ACBD81;} .st8{fill:#F5E169;} .st9{fill:#F0AF6B;} .st10{fill:#EA7C60;} .st11{fill:#A8B980;} .st12{fill:#829985;} .st13{fill:#798AAE;} .st14{fill:#8672A7;} .st15{fill:#CC5960;} .st16{fill:#E17A5F;} .st17{fill:#849B87;} .st18{opacity:0.8;fill:#E15C64;} .st19{opacity:0.8;fill:#F7B26A;} .st20{fill:#79A5B5;} .st21{opacity:0.8;fill:#79A5B4;} .st22{fill:#666766;}</style><g style="transform-origin: 50px 50px 0px;"><path class="st4" d="M82.3,65.1c2.7-4.5,4.5-9.6,5.1-15.1c0.6-5.4,0-11.1-1.9-16.5c2.9,4.9,4.8,10.6,5.4,16.5 c0.6,5.9-0.1,12.1-2.3,18l0,0.1c-0.7,1.8-2.7,2.8-4.5,2.1c-1.8-0.7-2.8-2.7-2.1-4.5C82.1,65.5,82.2,65.3,82.3,65.1z" fill="rgb(224, 224, 224)" style="fill: rgb(224, 224, 224);"></path></g><g style="transform-origin: 50px 50px 0px;"><path class="st3" d="M52.4,85.6c-1.9,0.3-3.2,2.2-2.8,4.1c0.3,1.9,2.2,3.2,4.1,2.8l0.1,0c6.1-1.1,11.9-3.6,16.7-7.1 c4.9-3.5,8.8-8,11.6-12.9c-3.7,4.3-8.4,7.7-13.4,9.9c-5,2.2-10.4,3.3-15.6,3.1C52.9,85.5,52.6,85.5,52.4,85.6z" fill="#0877ca" style="fill: rgb(8, 119, 202);"></path></g><g style="transform-origin: 50px 50px 0px;"><path class="st5" d="M20.4,69.9c-1.3-1.5-3.5-1.7-4.9-0.4s-1.7,3.5-0.4,4.9l0,0c4,4.7,9,8.5,14.5,10.9c5.4,2.5,11.3,3.7,17,3.6 c-5.6-1.1-10.9-3.4-15.3-6.6c-4.4-3.2-8-7.4-10.5-11.9C20.7,70.2,20.6,70,20.4,69.9z" fill="#e2481d" style="fill: rgb(226, 72, 29);"></path></g><g style="transform-origin: 50px 50px 0px;"><path class="st3" d="M31.3,17.6c5-2.2,10.4-3.3,15.6-3.1c0.2,0,0.5,0,0.7-0.1c1.9-0.3,3.2-2.2,2.8-4.1c-0.3-1.9-2.2-3.2-4.1-2.8 l-0.1,0c-6.1,1.1-11.9,3.6-16.7,7.1c-4.9,3.5-8.8,8-11.6,12.9C21.7,23.2,26.3,19.8,31.3,17.6z" fill="#0877ca" style="fill: rgb(8, 119, 202);"></path></g><g style="transform-origin: 50px 50px 0px;"><path class="st4" d="M18,34.3c0.7-1.8-0.3-3.8-2.1-4.5c-1.8-0.7-3.8,0.3-4.5,2.1l0,0.1c-2.1,5.9-2.8,12.1-2.3,18 c0.6,5.9,2.5,11.6,5.4,16.5C12.7,61.1,12,55.4,12.6,50c0.6-5.4,2.4-10.6,5.1-15.1C17.8,34.7,17.9,34.5,18,34.3z" fill="rgb(224, 224, 224)" style="fill: rgb(224, 224, 224);"></path></g><g style="transform-origin: 50px 50px 0px;"><path class="st5" d="M79.6,30.1c1.3,1.5,3.5,1.7,4.9,0.4s1.7-3.5,0.4-4.9l0,0c-4-4.7-9-8.5-14.5-10.9c-5.4-2.5-11.3-3.7-17-3.6 c5.6,1.1,10.9,3.4,15.3,6.6c4.4,3.2,8,7.4,10.5,11.9C79.3,29.8,79.4,30,79.6,30.1z" fill="#e2481d" style="fill: rgb(226, 72, 29);"></path></g><metadata xmlns:d="https://loading.io/stock/" style="transform-origin: 50px 50px 0px;">
<d:name style="transform-origin: 50px 50px 0px;">comet</d:name>
<d:tags style="transform-origin: 50px 50px 0px;">tadpole,meteor,star,soul,recycle,reincarnation,rotate,round,comet,spinner</d:tags>
<d:license style="transform-origin: 50px 50px 0px;">rf</d:license>
<d:slug style="transform-origin: 50px 50px 0px;">jc7x3t</d:slug>
</metadata></g></g></g></g><style type="text/css" style="transform-origin: 50px 50px 0px;">path,ellipse,circle,rect,polygon,polyline,line { stroke-width: 0; }@keyframes ld-cycle {
  0%, 50%, 100% {
    animation-timing-function: cubic-bezier(0.5, 0.5, 0.5, 0.5);
  }
  0% {
    -webkit-transform: rotate(0);
    transform: rotate(0);
  }
  50% {
    -webkit-transform: rotate(180deg);
    transform: rotate(180deg);
  }
  100% {
    -webkit-transform: rotate(360deg);
    transform: rotate(360deg);
  }
}
@-webkit-keyframes ld-cycle {
  0%, 50%, 100% {
    animation-timing-function: cubic-bezier(0.5, 0.5, 0.5, 0.5);
  }
  0% {
    -webkit-transform: rotate(0);
    transform: rotate(0);
  }
  50% {
    -webkit-transform: rotate(180deg);
    transform: rotate(180deg);
  }
  100% {
    -webkit-transform: rotate(360deg);
    transform: rotate(360deg);
  }
}
.ld.ld-cycle {
  -webkit-animation: ld-cycle 1s infinite linear;
  animation: ld-cycle 1s infinite linear;
}
</style></svg></svg>